<svg width="28" height="28" viewBox="0 0 28 28" fill="none" xmlns="http://www.w3.org/2000/svg">
<path d="M18.9627 23.5769C18.9627 23.8699 18.8161 24.1604 18.5269 24.4366C18.2374 24.713 17.8123 24.9673 17.2775 25.1833C16.2086 25.6149 14.7239 25.8846 13.0781 25.8846C11.4323 25.8846 9.94762 25.6149 8.87868 25.1833C8.34391 24.9673 7.91883 24.713 7.62931 24.4366C7.34008 24.1604 7.19351 23.8699 7.19351 23.5769C7.19351 23.2839 7.34008 22.9933 7.62931 22.7172C7.91883 22.4407 8.34391 22.1865 8.87868 21.9705C9.94762 21.5388 11.4323 21.2692 13.0781 21.2692C14.7239 21.2692 16.2086 21.5388 17.2775 21.9705C17.8123 22.1865 18.2374 22.4407 18.5269 22.7172C18.8161 22.9933 18.9627 23.2839 18.9627 23.5769Z" fill="#1C3563" stroke="#1C3563" stroke-width="0.230768"/>
<path d="M25.4237 12.5001C25.3618 19.2656 19.8582 24.7309 13.0782 24.7309C6.29812 24.7309 0.79455 19.2656 0.732611 12.5001H25.4237Z" fill="white" stroke="#1C3563" stroke-width="0.230768"/>
<path d="M24.7931 16.0559C24.4623 17.7548 23.2602 19.8409 21.3514 21.5439C19.3162 23.3596 16.4869 24.7309 13.0782 24.7309C9.66916 24.7309 6.81099 23.3594 4.76134 21.5436C2.82709 19.83 1.62293 17.7301 1.34843 16.0284C2.59804 17.1204 4.35395 17.9297 6.35394 18.4709C8.48393 19.0474 10.8995 19.3223 13.2952 19.3079C15.6908 19.2934 18.0704 18.9895 20.1282 18.4056C22.0351 17.8647 23.6749 17.0808 24.7931 16.0559Z" fill="#89AAFF" stroke="#1C3563" stroke-width="0.230768"/>
<path d="M25.4243 12.2691C25.4243 12.912 25.0975 13.5363 24.4813 14.1164C23.8648 14.6966 22.9666 15.2245 21.8471 15.6703C19.6087 16.5615 16.5084 17.1153 13.0782 17.1153C9.64789 17.1153 6.54767 16.5615 4.30926 15.6703C3.18973 15.2245 2.29151 14.6966 1.67507 14.1164C1.05885 13.5363 0.732083 12.912 0.732083 12.2691C0.732083 11.6262 1.05885 11.002 1.67507 10.4219C2.29151 9.84163 3.18973 9.31375 4.30926 8.86801C6.54767 7.97679 9.64789 7.423 13.0782 7.423C16.5084 7.423 19.6087 7.97679 21.8471 8.86801C22.9666 9.31375 23.8648 9.84163 24.4813 10.4219C25.0975 11.002 25.4243 11.6262 25.4243 12.2691Z" fill="#1C3563" stroke="#1C3563" stroke-width="0.230768"/>
<path d="M25.2699 2.6858C25.3235 2.6505 25.3957 2.6658 25.4304 2.71982L25.8012 3.29697C25.836 3.35121 25.8197 3.42347 25.7649 3.45742L8.10796 14.3984C8.05442 14.4316 7.98416 14.4157 7.95011 14.3627L7.88438 14.2604C7.8502 14.2072 7.86521 14.1364 7.91804 14.1016L25.2699 2.6858Z" fill="white" stroke="#1C3563" stroke-width="0.230768"/>
<path d="M26.5583 4.68096C26.6144 4.64968 26.6852 4.67021 26.7159 4.72662L27.0435 5.32931C27.0743 5.38595 27.0527 5.45682 26.9956 5.48668L8.58667 15.1087C8.53085 15.1379 8.46194 15.1169 8.43185 15.0616L8.37377 14.9547C8.34357 14.8992 8.36371 14.8297 8.41894 14.7988L26.5583 4.68096Z" fill="white" stroke="#1C3563" stroke-width="0.230768"/>
<path d="M19.5206 11.5837C20.5856 11.7748 21.5049 12.1655 22.1305 12.6373C22.762 13.1134 23.0662 13.6479 22.98 14.1285C22.8937 14.6092 22.4227 15.0045 21.6651 15.2314C20.9145 15.4562 19.9167 15.503 18.8517 15.3119C17.7866 15.1208 16.8673 14.7301 16.2417 14.2583C15.6102 13.7822 15.306 13.2477 15.3922 12.7671C15.4785 12.2864 15.9495 11.8911 16.7071 11.6642C17.4578 11.4394 18.4556 11.3926 19.5206 11.5837Z" fill="white" stroke="#1C3563" stroke-width="0.230768"/>
<path d="M20.4613 12.2327C21.0343 12.3356 21.5216 12.5731 21.847 12.868C22.1737 13.1642 22.3246 13.5044 22.2679 13.8205C22.2111 14.1367 21.9514 14.4033 21.542 14.5674C21.1344 14.7307 20.595 14.7841 20.022 14.6812C19.449 14.5784 18.9617 14.3409 18.6363 14.046C18.3095 13.7498 18.1587 13.4096 18.2154 13.0934C18.2722 12.7773 18.5319 12.5107 18.9412 12.3466C19.3488 12.1833 19.8883 12.1299 20.4613 12.2327Z" fill="#89AAFF" stroke="#1C3563" stroke-width="0.230768"/>
<path d="M20.4621 15.846C9.73142 17.8075 3.26992 15.2691 1.53916 12.9614C-0.191521 6.73049 6.73153 7.99979 10.3084 12.0382C13.8853 16.0767 18.0391 10.769 20.4621 15.846Z" fill="white" stroke="#1C3563" stroke-width="0.230768" stroke-linecap="round"/>
<path d="M8.69312 10.5383C11.2316 12.2691 11.0008 16.5383 14.0008 16.5383" stroke="#1C3563" stroke-width="0.230768"/>
<path d="M11.8088 13.1924C12.0781 14.2308 13.4704 16.4462 15.9627 16.5385" stroke="#1C3563" stroke-width="0.230768"/>
<path d="M12.27 14.231C13.4239 14.6925 14.832 14.7758 16.1931 14.4617C17.6931 14.1156 19.3084 14.8079 19.6546 15.9617" stroke="#1C3563" stroke-width="0.230768"/>
<path d="M13.5393 15.6154C16.1931 16.3077 17.0008 14.8077 18.3854 16.1924" stroke="#1C3563" stroke-width="0.230768"/>
<path d="M6.9624 9.5C10.3085 11.9231 9.1547 15.3846 12.1547 16.6538" stroke="#1C3563" stroke-width="0.230768"/>
<path d="M5.34692 8.80762C8.80844 10.8845 7.19307 14.2307 10.6546 16.5383" stroke="#1C3563" stroke-width="0.230768"/>
<path d="M2.1167 13.6538C2.69362 11.3461 3.61669 14.1153 5.6936 15.6153" stroke="#1C3563" stroke-width="0.230768"/>
<path d="M1.42432 12.5002C2.92431 9.38481 5.34737 15.2694 8.69351 16.1925" stroke="#1C3563" stroke-width="0.230768"/>
<path d="M1.1936 11.4614C2.92436 7.76916 6.9628 14.9229 9.27048 15.2691" stroke="#1C3563" stroke-width="0.230768"/>
<path d="M1.42432 10.0771C3.84738 7.30783 5.69352 12.154 8.34736 13.654" stroke="#1C3563" stroke-width="0.230768"/>
<path d="M3.3855 8.69238C5.57779 8.69238 6.03933 10.4231 7.65471 11.6924" stroke="#1C3563" stroke-width="0.230768"/>
<path d="M12.3473 5.50566C14.2877 7.14988 12.3675 7.34105 12.2423 8.20317C12.0058 9.8311 11.1744 8.77167 10.0092 9.59775C8.82042 11.0329 8.77646 8.66191 7.82929 8.51067C6.74667 8.33779 6.51764 6.76022 6.86645 6.38163C6.79067 3.85137 7.61678 5.01649 8.25639 4.25705C8.37051 3.56431 10.1515 2.58784 10.6228 3.91341C11.0202 5.03122 12.1156 3.62295 12.3473 5.50566Z" fill="#1C3563" stroke="#1C3563" stroke-width="0.230768"/>
<path d="M12.7591 5.40116C14.6995 7.04539 12.7793 7.23656 12.6541 8.09867C12.4177 9.72661 11.5862 8.66718 10.4211 9.49326C9.23229 10.9284 9.18833 8.55742 8.24116 8.40618C7.15854 8.2333 6.92951 6.65572 7.27832 6.27714C7.20253 3.74688 8.02864 4.91199 8.66825 4.15256C8.78237 3.45981 10.5633 2.48335 11.0346 3.80891C11.432 4.92672 12.5274 3.51845 12.7591 5.40116Z" fill="white" stroke="#1C3563" stroke-width="0.230768"/>
<path d="M12.1796 7.24921C11.6003 7.95289 9.74516 8.94411 8.54953 7.19821C7.74781 6.02751 8.82774 4.76802 9.86937 4.63511C10.8108 4.51498 11.8018 5.36396 11.5106 6.52595C11.3572 7.13788 10.0564 7.68386 9.48857 6.58112C8.96193 5.55841 10.6842 4.97185 10.5737 5.96659" stroke="#1C3563" stroke-width="0.230768" stroke-linecap="round"/>
</svg>
