<svg width="56" height="56" viewBox="0 0 56 56" fill="none" xmlns="http://www.w3.org/2000/svg">
<g clip-path="url(#clip0_7590_2872)">
<path d="M0 8C0 3.58172 3.58172 0 8 0H48C52.4183 0 56 3.58172 56 8V48C56 52.4183 52.4183 56 48 56H8C3.58172 56 0 52.4183 0 48V8Z" fill="#89AAFF"/>
<path d="M12.9567 15.531C12.3289 15.2916 12.0896 14.5239 12.4734 13.9684C14.587 10.8703 17.6444 8.62129 21.0947 7.46968C21.6547 7.28 22.2599 7.61871 22.4089 8.19226C22.5489 8.71613 22.2644 9.26258 21.7496 9.43419C18.7238 10.4503 16.0367 12.4239 14.1805 15.1426C13.9096 15.54 13.4038 15.7026 12.9567 15.531Z" fill="white" stroke="#001947"/>
<path d="M45.7213 27.9639C45.2742 27.7923 45.0033 27.3362 45.062 26.8575C45.473 23.5878 44.773 20.3317 43.1833 17.5633C42.9123 17.0936 43.0659 16.4975 43.513 16.1994C44.0052 15.8697 44.6826 16.0187 44.9762 16.5291C46.7917 19.6813 47.5865 23.3891 47.1168 27.1149C47.031 27.7833 46.3491 28.1987 45.7168 27.9594L45.7213 27.9639Z" fill="white" stroke="#001947"/>
<path d="M22.8786 13.5846C21.1128 14.2213 19.5186 15.3233 18.2992 16.8046C18.0192 17.1433 17.5541 17.2742 17.1431 17.1207C16.4973 16.8723 16.267 16.0594 16.705 15.5265C18.1637 13.7516 20.065 12.4329 22.1786 11.6697C22.7431 11.4665 23.3663 11.7916 23.5199 12.3697C23.6554 12.88 23.3799 13.4084 22.8876 13.5891L22.8786 13.5846Z" fill="white" stroke="#001947"/>
<path d="M41.5393 26.3742C41.1283 26.2161 40.8664 25.8097 40.8799 25.3716C40.9477 23.4568 40.487 21.5736 39.5883 19.9252C39.3354 19.4645 39.4845 18.8865 39.9225 18.5929C40.4238 18.2587 41.1012 18.4258 41.3903 18.9587C42.4651 20.9323 43.0116 23.1813 42.9258 25.4755C42.8987 26.1665 42.1896 26.6226 41.5438 26.3787L41.5393 26.3742Z" fill="white" stroke="#001947"/>
<path d="M32.9406 12.2478C31.4142 11.6697 29.7071 12.4375 29.129 13.9639C28.5509 15.4904 29.3187 17.1975 30.8451 17.7755C32.3716 18.3536 34.0787 17.5858 34.6568 16.0594C35.2348 14.5329 34.4716 12.8258 32.9406 12.2478ZM31.4142 16.2716C30.7187 16.0097 30.3709 15.2329 30.6329 14.5375C30.8948 13.842 31.6716 13.4897 32.3671 13.7516C33.0626 14.0136 33.4148 14.7949 33.1484 15.4904C32.8819 16.1858 32.1097 16.5336 31.4097 16.2716H31.4142Z" fill="#001947" stroke="#001947"/>
<path d="M37.2489 28.8355L35.1399 34.3949C34.2367 36.7703 29.3547 37.1271 24.2379 35.1852C19.1212 33.2432 15.707 29.7387 16.6102 27.3632L18.7192 21.8039C20.6612 16.6916 26.3831 14.1129 31.4999 16.0549C36.6166 17.9968 39.1908 23.7232 37.2534 28.8355H37.2489Z" fill="white" stroke="#001947"/>
<path d="M35.1399 34.3994C34.2366 36.7748 29.3547 37.1316 24.2379 35.1897C19.1212 33.2477 15.707 29.7432 16.6102 27.3677C17.5134 24.9923 22.3908 24.6355 27.5076 26.5774C32.6244 28.5194 36.0431 32.0194 35.1399 34.3994Z" fill="white" stroke="#001947"/>
<path d="M36.0252 39.5387L34.7065 43.0116L11.2136 34.1013L12.5323 30.6284C13.6749 27.6116 19.862 27.1645 26.3517 29.6258C32.8414 32.0871 37.1723 36.5309 36.0252 39.5432V39.5387Z" fill="#001947" stroke="#001947"/>
<path d="M34.7062 43.0164C35.8504 40.0012 31.5188 35.5613 25.0313 33.0995C18.5439 30.6378 12.3572 31.0864 11.213 34.1016C10.0689 37.1168 14.4005 41.5568 20.8879 44.0185C27.3754 46.4803 33.5621 46.0316 34.7062 43.0164Z" fill="#89AAFF" stroke="#001947"/>
<path d="M30.6193 41.6161C30.3439 42.3387 29.3955 42.7407 28.0497 42.8129C26.3968 42.9032 24.1477 42.5058 21.7993 41.6161C19.451 40.7265 17.5045 39.5297 16.3303 38.3645C15.3729 37.4207 14.9303 36.4903 15.2013 35.7678C15.5355 34.8871 16.8587 34.4897 18.6877 34.571C20.2097 34.6387 22.0793 35.0361 24.0168 35.7723C25.9542 36.5084 27.6161 37.4478 28.7993 38.4097C30.2219 39.5568 30.949 40.74 30.6148 41.6207L30.6193 41.6161Z" fill="#001947" stroke="#001947"/>
<path d="M28.5012 41.8645C28.3747 42.1987 28.2257 42.5149 28.0451 42.8129C26.5096 45.4503 23.2489 46.6697 20.3044 45.5497C17.3599 44.4342 15.7205 41.3542 16.3257 38.3645C16.3889 38.0258 16.4883 37.6916 16.6147 37.3574C17.0483 36.2103 17.7799 35.262 18.6876 34.571C20.2096 34.6387 22.0793 35.0362 24.0167 35.7723C25.9541 36.5084 27.616 37.4478 28.7993 38.4097C29.016 39.5297 28.9347 40.722 28.5012 41.8691V41.8645Z" fill="white" stroke="#001947"/>
<path d="M26.2793 42.1671C25.2045 44.0097 22.9239 44.8633 20.86 44.082L26.2793 42.1671Z" fill="white"/>
<path d="M26.2793 42.1671C25.2045 44.0097 22.9239 44.8633 20.86 44.082" stroke="#001947"/>
</g>
<defs>
<clipPath id="clip0_7590_2872">
<path d="M0 8C0 3.58172 3.58172 0 8 0H48C52.4183 0 56 3.58172 56 8V48C56 52.4183 52.4183 56 48 56H8C3.58172 56 0 52.4183 0 48V8Z" fill="white"/>
</clipPath>
</defs>
</svg>
